<svg width="370" height="370" viewBox="0 0 370 370" fill="none" xmlns="http://www.w3.org/2000/svg">
<path d="M73.4913 310.856C73.4913 310.856 91.7239 310.898 91.751 310.874C106.011 310.874 107.606 303.386 113.763 295.682C119.909 287.978 123.159 284.329 126.932 287.188C140.193 297.794 151.231 305.854 160.889 298.596C178.385 285.222 186.11 252.441 202.484 233.596C206.308 228.719 214.842 221.484 218.9 216.81C220.803 214.808 219.709 212.908 217.748 214.086C209.49 219.621 190.878 231.728 177.097 257.304C164.365 280.481 155.167 288.392 144.894 282.249C139.629 279.313 136.392 275.086 129.233 270.083C122.069 265.081 115.087 275.338 111.407 279.014C107.724 282.691 100.23 293.341 93.7849 294.564C87.3398 295.79 80.1263 293.954 75.6788 302.836C73.071 307.888 73.4913 310.856 73.4913 310.856Z" fill="#8EC9E6"/>
<path d="M242.131 132.499C249.638 142.585 249.082 151.192 243.012 159.356C238.692 165.879 236.056 171.328 235.22 180.161C234.118 194.744 245.186 208.177 258.447 209.499C265.095 209.774 270.849 207.573 275.577 202.908C291.261 187.432 291.189 149.739 291.079 144.051L297.918 143.965C298.623 145.775 300.959 151.268 305.724 158.31C323.269 184.238 337.845 190.594 349.52 188.235C357.515 186.407 334.347 169.434 332.467 167.629C330.582 165.821 331.802 164.318 335.165 166.208C336.241 166.812 380.842 189.953 367.518 199.679C356.34 207.288 337.376 205.245 323.043 193.061C308.562 180.323 296.309 155.648 296.192 155.4L295.395 153.794C295.395 153.794 295.287 153.574 295.279 153.817C295.301 154.633 295.359 156.975 295.373 157.53C296.07 195.939 283.966 216.54 260.901 218.759C243.397 220.121 223.22 207.288 220.63 185.893C217.716 155.004 237.919 136.081 242.131 132.499Z" fill="#8EC9E6"/>
<path d="M77.3506 62.013C77.3506 62.013 80.2206 56.5233 87.6781 59.9561C93.5448 62.7889 105.559 75.0177 118.331 100.995C140.916 147.899 135.511 124.339 125.079 99.6783C120.749 89.4388 115.728 79.339 110.182 71.2467C104.568 63.0595 95.4522 53.1988 87.6194 48.7738C75.7551 42.1744 73.1473 48.6384 73.9744 54.7821C74.4354 58.6164 77.3506 62.013 77.3506 62.013Z" fill="#8EC9E6"/>
<path d="M2.91524 315.539C7.13216 310.419 10.9784 308.524 20.6777 308.524C30.4901 308.524 33.6584 305.8 41.8618 290.318C50.9284 273.205 59.6153 267.549 67.2988 262.545C74.3179 258.617 84.2161 253.619 89.0568 241.72C90.0963 239.427 91.4477 235.679 93.007 231.339L93.12 231.028C94.851 226.211 96.8801 220.577 99.009 215.48L99.0313 215.584C99.0313 215.584 105.608 198.917 102.584 221.488C101.224 231.646 101.839 238.061 102.923 242.094C103.926 244.872 105.68 247.872 108.763 250.488C113.025 254.11 107.624 252.298 100.361 255.175C98.6746 255.838 96.9799 257.029 95.2438 258.482C91.0048 262.87 85.5088 267.531 78.9687 270.878C61.9248 279.588 52.8718 296.801 47.1227 304.158L45.595 306.359C37.5725 317.934 33.1567 324.303 24.3659 324.303C24.3659 324.303 0.018051 324.325 0 324.303C0.0542592 322.887 0.420376 318.579 2.91524 315.539Z" fill="#8EC9E6"/>
<path d="M168.618 126.671C179.094 109.778 200.948 91.0401 229.309 91.0401C231.104 91.0401 232.934 91.1168 234.783 91.2746C234.809 91.2746 234.832 91.2837 234.85 91.2837C238.963 84.779 245.051 76.2852 250.131 73.8494C256.038 71.0211 263.916 73.2449 266.515 81.3463C268.288 86.8675 266.9 97.2875 265.336 96.1688C263.343 94.7434 263.564 76.4114 253.702 82.6003C249.891 85.0001 247.009 91.4416 246.077 93.733C256.603 96.9898 264.563 102.619 269.828 110.54C273.205 115.877 278.709 127.952 275.09 142.581C273.489 149.049 272.544 141.033 270.804 132.616C269.187 125.53 267.103 117.645 258.89 110.874C250.678 104.103 238.538 99.8632 224.152 101.446C210.217 103.012 197.725 109.873 188.486 120.775C186.2 123.468 180.704 131.606 179.677 133.185C173.526 142.662 170.005 148.066 157.861 147.944C159.8 142.801 163.086 135.589 168.618 126.671Z" fill="#8EC9E6"/>
<path d="M55.1179 52.4366C61.6806 56.4513 69.7437 62.9875 78.3719 73.0692C87.7955 84.0935 98.5844 99.5296 110.435 118.958C117.336 130.266 119.343 136.825 118.972 137.601C118.964 137.601 118.964 137.601 118.964 137.601C118.774 137.601 116.265 137.281 105.11 121.736C80.5142 86.0783 58.928 62.4642 53.6896 65.4548L53.6715 65.4638C53.0478 65.8518 52.7179 66.6547 52.6999 67.8546C53.1021 81.8337 82.9142 134.412 125.522 159.424C119.298 175.194 121.598 188.343 128.794 201.325C133.725 210.221 151.831 228.471 168.554 223.703C185.281 218.931 180.011 172.686 152.509 163.393C144.644 160.989 139.678 165.907 137.92 172.542C136.256 178.807 137.029 186.503 137.562 190.165C137.756 191.501 137.137 191.122 136.776 190.536C126.742 174.098 134.381 159.492 143.75 156.537C154.688 153.09 169.598 160.913 178.611 175.726C193.1 201.609 186.276 223.528 174.669 230.456C153.819 243.177 119.723 220.979 112.587 194.898C109.911 184.053 111.56 172.831 115.592 163.7C55.1314 121.741 41.5632 82.3839 38.8785 62.5814C37.4231 49.5948 46.3677 47.0869 55.1179 52.4366Z" fill="#8EC9E6"/>
</svg>
